<svg width="24" height="24" viewBox="0 0 24 24" fill="none" xmlns="http://www.w3.org/2000/svg">
<path d="M18 20.5004V22.0004H6V20.5004H18ZM20.5 18.0004V8.03947C20.5 6.65876 19.3807 5.53947 18 5.53947H6C4.61929 5.53947 3.5 6.65876 3.5 8.03947V18.0004C3.50022 19.3809 4.61943 20.5004 6 20.5004V22.0004L5.79395 21.9946C3.74863 21.8908 2.10838 20.2509 2.00488 18.2055L2 18.0004V8.03947C2 5.83034 3.79086 4.03947 6 4.03947H18C20.2091 4.03947 22 5.83033 22 8.03947V18.0004L21.9951 18.2055C21.8916 20.2509 20.2514 21.8908 18.2061 21.9946L18 22.0004V20.5004C19.3806 20.5004 20.4998 19.3809 20.5 18.0004Z" fill="#131927"/>
<path d="M6.25 4.03906V2.5C6.25 2.08579 6.58579 1.75 7 1.75C7.41421 1.75 7.75 2.08579 7.75 2.5V4.03906C7.75 4.45328 7.41421 4.78906 7 4.78906C6.58579 4.78906 6.25 4.45328 6.25 4.03906Z" fill="#131927"/>
<path d="M16.25 4.03906V2.5C16.25 2.08579 16.5858 1.75 17 1.75C17.4142 1.75 17.75 2.08579 17.75 2.5V4.03906C17.75 4.45328 17.4142 4.78906 17 4.78906C16.5858 4.78906 16.25 4.45328 16.25 4.03906Z" fill="#131927"/>
<path d="M6.75 9C6.75 8.72386 6.97386 8.5 7.25 8.5H8.75C9.02614 8.5 9.25 8.72386 9.25 9V10.5658C9.25 10.8419 9.02614 11.0658 8.75 11.0658H7.25C6.97386 11.0658 6.75 10.8419 6.75 10.5658V9Z" fill="#131927"/>
<path d="M10.75 9C10.75 8.72386 10.9739 8.5 11.25 8.5H12.75C13.0261 8.5 13.25 8.72386 13.25 9V10.5658C13.25 10.8419 13.0261 11.0658 12.75 11.0658H11.25C10.9739 11.0658 10.75 10.8419 10.75 10.5658V9Z" fill="#131927"/>
<path d="M10.75 13.1053C10.75 12.8291 10.9739 12.6053 11.25 12.6053H12.75C13.0261 12.6053 13.25 12.8291 13.25 13.1053V14.6711C13.25 14.9472 13.0261 15.1711 12.75 15.1711H11.25C10.9739 15.1711 10.75 14.9472 10.75 14.6711V13.1053Z" fill="#131927"/>
<path d="M14.75 9C14.75 8.72386 14.9739 8.5 15.25 8.5H16.75C17.0261 8.5 17.25 8.72386 17.25 9V10.5658C17.25 10.8419 17.0261 11.0658 16.75 11.0658H15.25C14.9739 11.0658 14.75 10.8419 14.75 10.5658V9Z" fill="#131927"/>
<path d="M6.75 13.1053C6.75 12.8291 6.97386 12.6053 7.25 12.6053H8.75C9.02614 12.6053 9.25 12.8291 9.25 13.1053V14.6711C9.25 14.9472 9.02614 15.1711 8.75 15.1711H7.25C6.97386 15.1711 6.75 14.9472 6.75 14.6711V13.1053Z" fill="#131927"/>
</svg>
