<svg width="24" height="24" viewBox="0 0 24 24" fill="none" xmlns="http://www.w3.org/2000/svg">
<path d="M9.49861 12C9.49861 13.3807 10.6186 14.5 12.0001 14.5C13.3816 14.5 14.5015 13.3807 14.5015 12C14.5015 10.6193 13.3816 9.5 12.0001 9.5C10.6186 9.5 9.49861 10.6193 9.49861 12Z" stroke="#131927" stroke-width="1.5" stroke-miterlimit="10" stroke-linecap="round" stroke-linejoin="round"/>
<path d="M11.2075 3L12.7924 3C13.729 3 14.5034 3.76462 14.5034 4.70915C14.5034 6.33733 15.6561 7.003 17.0699 6.18441C17.8804 5.71664 18.934 5.9955 19.4023 6.81409L20.2938 8.37031C20.7171 9.08096 20.4649 9.9985 19.7535 10.4213L19.5824 10.5202C18.1686 11.3298 18.1686 12.6612 19.5824 13.4798L19.7535 13.5787C20.4649 14.0015 20.7171 14.919 20.2938 15.6297L19.4023 17.1859C18.934 18.0045 17.8804 18.2834 17.0699 17.8156C15.6561 16.997 14.5034 17.6627 14.5034 19.2909C14.5034 20.2264 13.738 21 12.7924 21L11.2075 21C10.2709 21 9.49648 20.2354 9.49648 19.2909C9.49648 17.6627 8.34381 16.997 6.92998 17.8156C6.1105 18.2834 5.06588 18.0045 4.59761 17.1859L3.70609 15.6297C3.28284 14.919 3.53498 14.0015 4.2464 13.5787L4.4175 13.4798C5.83133 12.6702 5.83133 11.3388 4.4175 10.5202L4.2464 10.4213C3.53498 9.9985 3.28284 9.08096 3.70609 8.37031L4.59761 6.81409C5.06588 5.9955 6.1195 5.71664 6.92998 6.18441C8.34381 7.003 9.49649 6.33733 9.49649 4.70914C9.49649 3.76462 10.2709 3 11.2075 3Z" stroke="#131927" stroke-width="1.5" stroke-miterlimit="10" stroke-linecap="round" stroke-linejoin="round"/>
</svg>
