<svg width="20" height="20" viewBox="0 0 20 20" fill="none" xmlns="http://www.w3.org/2000/svg">
<rect x="2" y="2" width="16" height="16" rx="6" fill="#9EA2AE"/>
<path d="M11.8695 7.06973C12.1624 6.77686 12.6372 6.77693 12.9301 7.06973C13.223 7.36262 13.223 7.83738 12.9301 8.13027L11.06 9.99941L12.9301 11.8695C13.223 12.1624 13.223 12.6372 12.9301 12.9301C12.6372 13.223 12.1624 13.223 11.8695 12.9301L9.99941 11.06L8.13027 12.9301C7.83738 13.223 7.36262 13.223 7.06973 12.9301C6.77693 12.6372 6.77687 12.1624 7.06973 11.8695L8.93887 9.99941L7.06973 8.13027C6.77683 7.83738 6.77683 7.36262 7.06973 7.06973C7.36262 6.77683 7.83738 6.77683 8.13027 7.06973L9.99941 8.93887L11.8695 7.06973Z" fill="white"/>
</svg>
