<svg width="24" height="24" viewBox="0 0 24 24" fill="none" xmlns="http://www.w3.org/2000/svg">
<path d="M7.25 9.5C8.49264 9.5 9.5 8.49264 9.5 7.25C9.5 6.00736 8.49264 5 7.25 5C6.00736 5 5 6.00736 5 7.25C5 8.49264 6.00736 9.5 7.25 9.5Z" stroke="#C4C8D1" stroke-width="1.5" stroke-linecap="round" stroke-linejoin="round"/>
<path d="M2.5 18L6.23734 14.4164C7.1021 13.6283 8.34997 13.7175 9.12716 14.6246L9.48839 15.0559C10.3422 16.0522 11.7214 16.0522 12.5752 15.0559L17.1289 9.74722C17.9827 8.75093 19.3619 8.75093 20.2158 9.74722L22 11.829" stroke="#131927" stroke-width="1.5" stroke-linecap="round" stroke-linejoin="round"/>
<path d="M2 10C2 6.22876 2 4.34315 3.17157 3.17157C4.34315 2 6.22876 2 10 2H14C17.7712 2 19.6569 2 20.8284 3.17157C22 4.34315 22 6.22876 22 10V14C22 17.7712 22 19.6569 20.8284 20.8284C19.6569 22 17.7712 22 14 22H10C6.22876 22 4.34315 22 3.17157 20.8284C2 19.6569 2 17.7712 2 14V10Z" stroke="#C4C8D1" stroke-width="1.5"/>
</svg>
