<svg width="72" height="72" viewBox="0 0 72 72" fill="none" xmlns="http://www.w3.org/2000/svg">
<rect x="0.5" y="0.5" width="71" height="71" rx="35.5" fill="white"/>
<rect x="0.5" y="0.5" width="71" height="71" rx="35.5" stroke="#F0F2F7"/>
<path d="M48.7861 31.5165L33.6913 44.2532L23.2212 40.4796L38.309 27.7429L48.0398 31.2514L48.7861 31.5165Z" fill="#091F2C"/>
<path d="M61 35.9211L36.3767 56.7072C34.7096 58.1092 32.4286 58.5207 30.3778 57.7814L11.0071 50.7992L20.5146 42.7707L33.6912 47.5209L51.4925 32.4893L61 35.9211Z" fill="#0047A0"/>
<path d="M60.9999 21.2016L58.2864 23.4894L48.7789 31.5179L48.0395 31.2528L38.3018 27.7443L23.214 40.481L13.7065 37.0492L11 36.0797L21.3167 27.3676L35.6233 15.2936C37.2834 13.8916 39.5713 13.48 41.6151 14.2194L48.0395 16.5352L50.5297 17.428L60.9999 21.2016Z" fill="#CD2E3A"/>
</svg>
