<svg width="21" height="20" viewBox="0 0 21 20" fill="none" xmlns="http://www.w3.org/2000/svg">
<path d="M6.78126 16.2708C7.87501 16.9271 9.18751 17.2917 10.5 17.2917C14.5104 17.2917 17.7917 14.0104 17.7917 9.99999C17.7917 5.98958 14.5104 2.70833 10.5 2.70833C6.48959 2.70833 3.20834 5.98958 3.20834 9.99999C3.20834 11.3125 3.57293 12.5521 4.15626 13.6458L3.52546 16.072C3.38526 16.6112 3.88437 17.0985 4.42009 16.9454L6.78126 16.2708Z" stroke="#131416" stroke-width="1.5" stroke-miterlimit="10" stroke-linecap="round" stroke-linejoin="round"/>
<path d="M14 12.2155C14 12.3415 13.972 12.471 13.9124 12.597C13.8528 12.723 13.7757 12.842 13.674 12.954C13.5023 13.143 13.313 13.2795 13.0991 13.367C12.8888 13.4545 12.661 13.5 12.4156 13.5C12.0581 13.5 11.676 13.416 11.2729 13.2445C10.8698 13.073 10.4667 12.842 10.0671 12.5515C9.664 12.2575 9.28192 11.932 8.91738 11.5715C8.55633 11.2075 8.23035 10.826 7.93941 10.427C7.65198 10.028 7.42063 9.62905 7.25238 9.23355C7.08413 8.83455 7 8.45305 7 8.08905C7 7.85105 7.04206 7.62355 7.12619 7.41355C7.21032 7.20005 7.34352 7.00405 7.52929 6.82905C7.75363 6.60855 7.999 6.50005 8.25839 6.50005C8.35653 6.50005 8.45468 6.52105 8.54231 6.56305C8.63345 6.60505 8.71407 6.66805 8.77717 6.75905L9.59039 7.90355C9.65348 7.99105 9.69905 8.07155 9.7306 8.14855C9.76214 8.22205 9.77967 8.29555 9.77967 8.36205C9.77967 8.44605 9.75513 8.53005 9.70606 8.61055C9.66049 8.69105 9.59389 8.77505 9.50976 8.85905L9.24336 9.13555C9.20481 9.17405 9.18728 9.21955 9.18728 9.27555C9.18728 9.30355 9.19079 9.32805 9.1978 9.35605C9.20831 9.38405 9.21883 9.40505 9.22584 9.42605C9.28893 9.54155 9.3976 9.69205 9.55183 9.87405C9.70956 10.056 9.87782 10.2415 10.0601 10.427C10.2494 10.6125 10.4316 10.784 10.6174 10.9415C10.7997 11.0955 10.9504 11.2005 11.0696 11.2635C11.0871 11.2705 11.1082 11.281 11.1327 11.2915C11.1607 11.302 11.1888 11.3055 11.2203 11.3055C11.2799 11.3055 11.3255 11.2845 11.364 11.246L11.6304 10.9835C11.7181 10.896 11.8022 10.8295 11.8828 10.7875C11.9634 10.7385 12.0441 10.714 12.1317 10.714C12.1983 10.714 12.2684 10.728 12.3455 10.7595C12.4226 10.791 12.5033 10.8365 12.5909 10.896L13.7511 11.7185C13.8423 11.7815 13.9054 11.855 13.9439 11.9425C13.979 12.03 14 12.1175 14 12.2155Z" fill="#131416"/>
</svg>
