<svg width="24" height="48" viewBox="0 0 24 48" fill="none" xmlns="http://www.w3.org/2000/svg">
<g clip-path="url(#clip0_79_210)">
<path d="M11.1586 3.30996C11.5522 2.69719 12.4478 2.6972 12.8414 3.30996L15.1986 6.97987C15.334 7.19071 15.5436 7.34302 15.786 7.40666L20.0047 8.51442C20.7091 8.69938 20.9859 9.55117 20.5247 10.1148L17.7628 13.4907C17.6042 13.6847 17.5241 13.9311 17.5385 14.1813L17.7886 18.5358C17.8303 19.2629 17.1058 19.7893 16.4272 19.5249L12.363 17.9415C12.1296 17.8505 11.8704 17.8505 11.637 17.9415L7.57282 19.5249C6.89423 19.7893 6.16966 19.2629 6.21142 18.5358L6.46153 14.1813C6.4759 13.9311 6.39582 13.6847 6.23716 13.4907L3.47527 10.1148C3.01412 9.55117 3.29089 8.69938 3.99528 8.51442L8.21399 7.40666C8.45636 7.34302 8.66599 7.19071 8.80141 6.97987L11.1586 3.30996Z" fill="#FFB114"/>
<path d="M11.1586 27.31C11.5522 26.6972 12.4478 26.6972 12.8414 27.31L15.1986 30.9799C15.334 31.1907 15.5436 31.343 15.786 31.4067L20.0047 32.5144C20.7091 32.6994 20.9859 33.5512 20.5247 34.1148L17.7628 37.4907C17.6042 37.6847 17.5241 37.9311 17.5385 38.1813L17.7886 42.5358C17.8303 43.2629 17.1058 43.7893 16.4272 43.5249L12.363 41.9415C12.1296 41.8505 11.8704 41.8505 11.637 41.9415L7.57282 43.5249C6.89423 43.7893 6.16966 43.2629 6.21142 42.5358L6.46153 38.1813C6.4759 37.9311 6.39582 37.6847 6.23716 37.4907L3.47527 34.1148C3.01412 33.5512 3.29089 32.6994 3.99528 32.5144L8.21399 31.4067C8.45636 31.343 8.66599 31.1907 8.80141 30.9799L11.1586 27.31Z" fill="#DCE0E9"/>
</g>
<defs>
<clipPath id="clip0_79_210">
<rect width="24" height="48" fill="white"/>
</clipPath>
</defs>
</svg>
