<svg width="24" height="24" viewBox="0 0 24 24" fill="none" xmlns="http://www.w3.org/2000/svg">
<path d="M9.55554 12.0555C9.55554 13.4363 10.6748 14.5555 12.0555 14.5555C13.4363 14.5555 14.5555 13.4363 14.5555 12.0555C14.5555 10.6748 13.4363 9.55554 12.0555 9.55554C10.6748 9.55554 9.55554 10.6748 9.55554 12.0555Z" stroke="#131416" stroke-width="1.5" stroke-miterlimit="10" stroke-linecap="round" stroke-linejoin="round"/>
<path d="M11.208 3.05554L12.792 3.05554C13.728 3.05554 14.502 3.82016 14.502 4.76469C14.502 6.39287 15.654 7.05854 17.067 6.23995C17.877 5.77218 18.93 6.05104 19.398 6.86963L20.289 8.42586C20.712 9.1365 20.46 10.054 19.749 10.4768L19.578 10.5758C18.165 11.3854 18.165 12.7167 19.578 13.5353L19.749 13.6343C20.46 14.057 20.712 14.9746 20.289 15.6852L19.398 17.2414C18.93 18.06 17.877 18.3389 17.067 17.8711C15.654 17.0525 14.502 17.7182 14.502 19.3464C14.502 20.2819 13.737 21.0555 12.792 21.0555L11.208 21.0555C10.272 21.0555 9.49798 20.2909 9.49798 19.3464C9.49798 17.7182 8.34598 17.0525 6.93298 17.8711C6.11398 18.3389 5.06998 18.06 4.60198 17.2414L3.71098 15.6852C3.28798 14.9746 3.53998 14.057 4.25098 13.6343L4.42198 13.5353C5.83498 12.7257 5.83498 11.3944 4.42198 10.5758L4.25098 10.4768C3.53998 10.054 3.28798 9.1365 3.71098 8.42586L4.60198 6.86963C5.06998 6.05104 6.12299 5.77218 6.93299 6.23995C8.34599 7.05854 9.49798 6.39287 9.49798 4.76469C9.49798 3.82016 10.272 3.05554 11.208 3.05554Z" stroke="#131416" stroke-width="1.5" stroke-miterlimit="10" stroke-linecap="round" stroke-linejoin="round"/>
</svg>
