<svg width="48" height="48" viewBox="0 0 48 48" fill="none" xmlns="http://www.w3.org/2000/svg">
<path d="M16 32.8042V39.1958C16 39.9812 15.1361 40.46 14.47 40.0438L9.3568 36.848C8.73013 36.4563 8.73013 35.5437 9.3568 35.152L14.47 31.9562C15.136 31.54 16 32.0188 16 32.8042Z" fill="#131416"/>
<path d="M32 32.8042V39.1958C32 39.9812 32.8639 40.46 33.53 40.0438L38.6432 36.848C39.2699 36.4563 39.2699 35.5437 38.6432 35.152L33.53 31.9562C32.864 31.54 32 32.0188 32 32.8042Z" fill="#131416"/>
<path d="M39.1958 9H32.8042C32.0188 9 31.54 9.86395 31.9562 10.53L35.152 15.6432C35.5437 16.2699 36.4563 16.2699 36.848 15.6432L40.0438 10.53C40.46 9.86395 39.9812 9 39.1958 9Z" fill="#131416"/>
<path d="M8.80425 16H15.1958C15.9812 16 16.46 15.1361 16.0438 14.47L12.848 9.3568C12.4563 8.73013 11.5437 8.73013 11.152 9.3568L7.95625 14.47C7.53997 15.136 8.01881 16 8.80425 16Z" fill="#131416"/>
</svg>
