<svg width="72" height="48" viewBox="0 0 72 48" fill="none" xmlns="http://www.w3.org/2000/svg">
<g clip-path="url(#clip0_295_1775)">
<path d="M7.73003 18.3572C5.41182 16.4924 4.04747 14.7511 3.13108 13.0353C1.65644 10.2604 1.44578 6.89232 3.57348 4.66814C5.70117 2.44395 9.19818 2.44395 11.3259 4.66814L12 5.37777L12.6741 4.66814C14.8018 2.44395 18.2988 2.44395 20.4265 4.66814C22.5542 6.89232 22.3436 10.2604 20.8689 13.0353C18.0437 18.3314 12.4929 20.7895 12.0215 20.987C11.998 20.9969 11.9786 20.9957 11.9551 20.9858C11.686 20.8728 9.8684 20.0773 7.73003 18.3572Z" fill="#ED5061" stroke="#ED5061" stroke-width="1.5"/>
<circle cx="36" cy="12" r="9.25" fill="#009574" stroke="#009574" stroke-width="1.5"/>
<path d="M34.445 15.444L31.4626 12.4616C31.1698 12.1688 31.1699 11.6938 31.4626 11.4009C31.7555 11.108 32.2304 11.108 32.5233 11.4009L35.0002 13.8779L39.4086 9.4695C39.7014 9.17674 40.1763 9.17689 40.4692 9.4695C40.7621 9.76237 40.7621 10.2373 40.4692 10.5302L35.5298 15.4695C35.2369 15.7623 34.762 15.7624 34.4692 15.4695C34.4609 15.4612 34.4529 15.4526 34.445 15.444Z" fill="white"/>
<path d="M55.5375 43.525C56.85 44.3125 58.425 44.75 60 44.75C64.8125 44.75 68.75 40.8125 68.75 36C68.75 31.1875 64.8125 27.25 60 27.25C55.1875 27.25 51.25 31.1875 51.25 36C51.25 37.575 51.6875 39.0625 52.3875 40.375L51.5671 43.5303C51.4269 44.0695 51.926 44.5569 52.4618 44.4038L55.5375 43.525Z" stroke="#6D7882" stroke-width="1.5" stroke-miterlimit="10" stroke-linecap="round" stroke-linejoin="round"/>
<circle cx="56" cy="36" r="1.25" fill="#6D7882"/>
<circle cx="60" cy="36" r="1.25" fill="#6D7882"/>
<circle cx="64" cy="36" r="1.25" fill="#6D7882"/>
<path d="M7.73003 42.3572C5.41182 40.4924 4.04747 38.7511 3.13108 37.0353C1.65644 34.2604 1.44578 30.8923 3.57348 28.6681C5.70117 26.444 9.19818 26.444 11.3259 28.6681L12 29.3778L12.6741 28.6681C14.8018 26.444 18.2988 26.444 20.4265 28.6681C22.5542 30.8923 22.3436 34.2604 20.8689 37.0353C18.0437 42.3314 12.4929 44.7895 12.0215 44.987C11.998 44.9969 11.9786 44.9957 11.9551 44.9858C11.686 44.8728 9.8684 44.0773 7.73003 42.3572Z" stroke="#6D7882" stroke-width="1.5"/>
<circle cx="36" cy="37" r="9.25" stroke="#6D7882" stroke-width="1.5"/>
<path d="M34.445 40.444L31.4626 37.4616C31.1698 37.1688 31.1699 36.6938 31.4626 36.4009C31.7555 36.108 32.2304 36.108 32.5233 36.4009L35.0002 38.8779L39.4086 34.4695C39.7014 34.1767 40.1763 34.1769 40.4692 34.4695C40.7621 34.7624 40.7621 35.2373 40.4692 35.5302L35.5298 40.4695C35.2369 40.7623 34.762 40.7624 34.4692 40.4695C34.4609 40.4612 34.4529 40.4526 34.445 40.444Z" fill="#6D7882"/>
<path d="M55.5375 19.525C56.85 20.3125 58.425 20.75 60 20.75C64.8125 20.75 68.75 16.8125 68.75 12C68.75 7.1875 64.8125 3.25 60 3.25C55.1875 3.25 51.25 7.1875 51.25 12C51.25 13.575 51.6875 15.0625 52.3875 16.375L51.5671 19.5303C51.4269 20.0695 51.926 20.5569 52.4618 20.4038L55.5375 19.525Z" stroke="#6D7882" stroke-width="1.5" stroke-miterlimit="10" stroke-linecap="round" stroke-linejoin="round"/>
<circle cx="56" cy="12" r="1.25" fill="#6D7882"/>
<circle cx="60" cy="12" r="1.25" fill="#6D7882"/>
<circle cx="64" cy="12" r="1.25" fill="#6D7882"/>
<path d="M55.5375 19.525C56.85 20.3125 58.425 20.75 60 20.75C64.8125 20.75 68.75 16.8125 68.75 12C68.75 7.1875 64.8125 3.25 60 3.25C55.1875 3.25 51.25 7.1875 51.25 12C51.25 13.575 51.6875 15.0625 52.3875 16.375L51.5671 19.5303C51.4269 20.0695 51.926 20.5569 52.4618 20.4038L55.5375 19.525Z" fill="#FFB114" stroke="#FFB114" stroke-width="1.5" stroke-miterlimit="10" stroke-linecap="round" stroke-linejoin="round"/>
<circle cx="56" cy="12" r="0.75" fill="white" stroke="white"/>
<circle cx="60" cy="12" r="0.75" fill="white" stroke="white"/>
<circle cx="64" cy="12" r="0.75" fill="white" stroke="white"/>
</g>
<defs>
<clipPath id="clip0_295_1775">
<rect width="72" height="48" fill="white"/>
</clipPath>
</defs>
</svg>
