<svg width="24" height="24" viewBox="0 0 24 24" fill="none" xmlns="http://www.w3.org/2000/svg">
<path d="M12 16.75C12.6904 16.75 13.25 17.3096 13.25 18C13.25 18.6904 12.6904 19.25 12 19.25C11.3096 19.25 10.75 18.6904 10.75 18C10.75 17.3096 11.3096 16.75 12 16.75ZM12 10.75C12.6904 10.75 13.25 11.3096 13.25 12C13.25 12.6904 12.6904 13.25 12 13.25C11.3096 13.25 10.75 12.6904 10.75 12C10.75 11.3096 11.3096 10.75 12 10.75ZM12 4.75C12.6904 4.75 13.25 5.30964 13.25 6C13.25 6.69036 12.6904 7.25 12 7.25C11.3096 7.25 10.75 6.69036 10.75 6C10.75 5.30964 11.3096 4.75 12 4.75Z" fill="#131416"/>
</svg>
