<svg width="24" height="24" viewBox="0 0 24 24" fill="none" xmlns="http://www.w3.org/2000/svg">
<path d="M8.25 11C9.49264 11 10.5 9.99264 10.5 8.75C10.5 7.50736 9.49264 6.5 8.25 6.5C7.00736 6.5 6 7.50736 6 8.75C6 9.99264 7.00736 11 8.25 11Z" stroke="#131416" stroke-width="1.5" stroke-linecap="round" stroke-linejoin="round"/>
<path d="M3 18L7.59079 14.6674C8.32644 14.1338 9.388 14.1942 10.0491 14.8083L10.3564 15.1003C11.0828 15.7749 12.2561 15.7749 12.9824 15.1003L16.8562 11.5059C17.5825 10.8314 18.7558 10.8314 19.4822 11.5059L21 12.9155" stroke="#131416" stroke-width="1.5" stroke-linecap="round" stroke-linejoin="round"/>
<path d="M6 2.75H18C19.7949 2.75 21.25 4.20507 21.25 6V18C21.25 19.7949 19.7949 21.25 18 21.25H6C4.20507 21.25 2.75 19.7949 2.75 18V6C2.75 4.20507 4.20507 2.75 6 2.75Z" stroke="#131416" stroke-width="1.5"/>
</svg>
