<svg width="24" height="24" viewBox="0 0 24 24" fill="none" xmlns="http://www.w3.org/2000/svg">
<path d="M20.1992 7.25L19.4404 18.7148C19.3273 20.4226 17.9088 21.7499 16.1973 21.75H7.80273C6.09125 21.7499 4.67269 20.4226 4.55957 18.7148L3.80078 7.25H20.1992Z" stroke="#131416" stroke-width="1.5"/>
<path d="M4 7.25H20C20.6904 7.25 21.25 6.69036 21.25 6C21.25 5.30964 20.6904 4.75 20 4.75H4C3.30964 4.75 2.75 5.30964 2.75 6C2.75 6.69036 3.30964 7.25 4 7.25Z" stroke="#131416" stroke-width="1.5"/>
<path d="M16.25 4.75V3.5C16.25 2.80964 15.6904 2.25 15 2.25H9C8.30964 2.25 7.75 2.80964 7.75 3.5V4.75H16.25Z" stroke="#131416" stroke-width="1.5"/>
<path d="M9.5 11V17" stroke="#131416" stroke-width="1.5" stroke-linecap="round"/>
<path d="M14.5 11V17" stroke="#131416" stroke-width="1.5" stroke-linecap="round"/>
</svg>
