<svg width="96" height="32" viewBox="0 0 96 32" fill="none" xmlns="http://www.w3.org/2000/svg">
<g clip-path="url(#clip0_90_275)">
<path d="M46.4958 5.24681L39.7854 7.89667C38.2865 8.48857 37.3494 9.98945 37.4758 11.596L37.9243 17.2984C38.0415 18.7886 38.5034 20.2313 39.2735 21.5125C40.4211 23.4219 42.1499 24.9137 44.2067 25.7695L46.3332 26.6544C47.3782 27.0892 48.5529 27.0923 49.6002 26.663L51.7619 25.777C53.8579 24.9179 55.6105 23.3892 56.7464 21.4294C57.458 20.2017 57.8851 18.83 57.9964 17.4154L58.4483 11.6699C58.5781 10.0194 57.6155 8.47753 56.0756 7.86947L49.4341 5.24681C48.4901 4.87405 47.4398 4.87405 46.4958 5.24681Z" fill="#096AF8"/>
<path d="M51.5102 12.6387C51.8009 12.2711 52.3339 12.209 52.7005 12.5004C53.0668 12.792 53.1288 13.3269 52.8384 13.6946L48.3562 19.3612C48.2017 19.5566 47.9692 19.6749 47.7208 19.6833C47.4725 19.6917 47.2328 19.5899 47.0656 19.4055L43.6403 15.627L44.8934 14.4837L47.648 17.5218L51.5102 12.6387ZM43.6965 14.4273C44.0426 14.1114 44.5786 14.1364 44.8934 14.4837L43.6403 15.627C43.3257 15.2799 43.3508 14.7431 43.6965 14.4273Z" fill="white"/>
<path d="M83.0301 5.486C83.5488 4.98809 84.3219 4.8611 84.9721 5.15921L85.1094 5.22931L86.8795 6.23797L87.0112 6.32051C87.6024 6.731 87.8853 7.46882 87.7042 8.17386L87.6585 8.32425L86.9565 10.2986V10.2997C86.9007 10.4574 86.9186 10.632 87.0056 10.7769L88.1127 12.6212L88.1875 12.7207C88.2444 12.7809 88.3146 12.83 88.394 12.8632L88.5201 12.9005L90.577 13.285L90.7266 13.32C91.4651 13.5265 91.9999 14.1999 92 14.9936V17.0063L91.9933 17.1635C91.9281 17.8881 91.4156 18.4885 90.7254 18.681L90.5748 18.715L88.7143 19.0621C88.5808 19.087 88.4632 19.1525 88.3772 19.2453L88.3025 19.3471L87.077 21.4401C86.9927 21.5843 86.9767 21.7557 87.0313 21.9105L87.6585 23.6768L87.7042 23.8272C87.8847 24.5317 87.6032 25.271 87.0112 25.6817L86.8795 25.7642L85.1105 26.7706C84.4349 27.1552 83.5868 27.0473 83.0313 26.5139L82.9241 26.4008L81.5603 24.837C81.4769 24.7416 81.3626 24.6746 81.2355 24.6459L81.1049 24.63L78.9308 24.6063C78.7923 24.6048 78.6608 24.6489 78.5558 24.7262L78.4609 24.8132L77.077 26.4008C76.5623 26.9912 75.7245 27.1603 75.0279 26.8407L74.8906 26.7706L73.1205 25.7631C72.3951 25.3496 72.0589 24.4746 72.3415 23.6768L73.0435 21.6979L73.0725 21.5781C73.087 21.4565 73.0601 21.3314 72.9944 21.2219V21.2208L71.8873 19.3776C71.8232 19.271 71.724 19.1854 71.6049 19.1356L71.4788 19.0983L69.4252 18.715C68.6613 18.5724 68.0769 17.9409 68.0067 17.1647L68 17.0075V14.9936C67.9999 14.1468 68.6092 13.4364 69.4241 13.2838H69.4252L71.2879 12.9367L71.4152 12.8982C71.5357 12.8472 71.6359 12.7596 71.6998 12.6506L72.9241 10.5598L72.9743 10.4467C72.9991 10.3694 73.0066 10.2875 72.9967 10.207L72.9688 10.0871L72.3426 8.32425C72.0595 7.52644 72.395 6.64944 73.1217 6.23571L74.8906 5.22931L75.0279 5.15921C75.7244 4.83991 76.5624 5.00829 77.077 5.59795L78.4408 7.16181L78.5335 7.24775C78.6354 7.32361 78.7622 7.36829 78.8962 7.36987L81.0681 7.39362L81.2031 7.38005C81.3337 7.35274 81.4509 7.28385 81.5368 7.18556L82.923 5.59795L83.0301 5.486Z" fill="#C4C8D1"/>
<circle cx="80" cy="16" r="3.33333" fill="white"/>
<path d="M21.5556 27.4444C24.1636 27.4444 26.2778 25.3302 26.2778 22.7222H24.6111C24.6111 24.4098 23.2431 25.7778 21.5556 25.7778H19.3333C18.8731 25.7778 18.5 26.1509 18.5 26.6111C18.5 27.0713 18.8731 27.4444 19.3333 27.4444H21.5556Z" fill="#00AB5B"/>
<path d="M25.1667 14.9444C25.1667 10.4955 21.5601 6.88889 17.1111 6.88889H14.8889C10.4399 6.88889 6.83332 10.4955 6.83332 14.9444C6.83332 15.4047 6.46023 15.7778 5.99999 15.7778C5.53975 15.7778 5.16666 15.4047 5.16666 14.9444C5.16666 9.57501 9.51944 5.22222 14.8889 5.22222H17.1111C22.4805 5.22222 26.8333 9.57501 26.8333 14.9444C26.8333 15.4047 26.4602 15.7778 26 15.7778C25.5398 15.7778 25.1667 15.4047 25.1667 14.9444Z" fill="#00AB5B"/>
<path d="M29.3334 17.7222C29.3334 15.8813 27.841 14.3889 26 14.3889H25.4445C24.8308 14.3889 24.3334 14.8863 24.3334 15.5V22.1667C24.3334 22.7803 24.8308 23.2778 25.4445 23.2778H26C27.841 23.2778 29.3334 21.7854 29.3334 19.9444V17.7222Z" fill="#00AB5B"/>
<path d="M13.7779 17.4358C13.7779 18.2029 13.1561 18.8247 12.389 18.8247C11.622 18.8247 11.0002 18.2029 11.0002 17.4358C11.0002 16.6687 11.622 16.0469 12.389 16.0469C13.1561 16.0469 13.7779 16.6687 13.7779 17.4358Z" fill="#3B3633"/>
<path d="M21.0002 17.4358C21.0002 18.2029 20.3783 18.8247 19.6113 18.8247C18.8442 18.8247 18.2224 18.2029 18.2224 17.4358C18.2224 16.6687 18.8442 16.0469 19.6113 16.0469C20.3783 16.0469 21.0002 16.6687 21.0002 17.4358Z" fill="#3B3633"/>
<path d="M17.4879 19.3889C17.74 19.3889 17.9444 19.5861 17.9444 19.8292C17.9444 20.2364 17.8987 20.6423 17.8081 21.0398L17.7967 21.0899C17.6215 21.8584 17.0285 22.4716 16.2519 22.6879C16.0872 22.7337 15.9128 22.7337 15.7481 22.6879C14.9715 22.4716 14.3784 21.8584 14.2032 21.0899L14.1918 21.0398C14.1012 20.6423 14.0555 20.2364 14.0555 19.8292C14.0555 19.5861 14.26 19.3889 14.5121 19.3889H17.4879Z" fill="#EC9687"/>
<path d="M12.0944 11.7739C12.9502 11.8425 13.6503 12.365 13.9601 13.0738C14.132 13.4669 13.7358 13.8162 13.2823 13.7798L10.5567 13.5614C10.1032 13.525 9.77679 13.1178 10.018 12.7578C10.4531 12.1087 11.2385 11.7053 12.0944 11.7739Z" fill="#1C733C"/>
<path d="M19.9054 11.7739C19.0496 11.8425 18.3495 12.365 18.0396 13.0738C17.8678 13.4669 18.2639 13.8162 18.7175 13.7798L21.443 13.5614C21.8966 13.525 22.223 13.1178 21.9817 12.7578C21.5467 12.1087 20.7612 11.7053 19.9054 11.7739Z" fill="#1C733C"/>
<path d="M2.66666 17.7222C2.66666 15.8813 4.15904 14.3889 5.99999 14.3889H6.55555C7.1692 14.3889 7.66666 14.8863 7.66666 15.5V22.1667C7.66666 22.7803 7.1692 23.2778 6.55555 23.2778H5.99999C4.15904 23.2778 2.66666 21.7854 2.66666 19.9444V17.7222Z" fill="#00AB5B"/>
</g>
<defs>
<clipPath id="clip0_90_275">
<rect width="96" height="32" fill="white"/>
</clipPath>
</defs>
</svg>
