<svg width="24" height="24" viewBox="0 0 24 24" fill="none" xmlns="http://www.w3.org/2000/svg">
<path d="M14.25 8.5C14.6642 8.5 15 8.83579 15 9.25C15 9.66421 14.6642 10 14.25 10H7.25C6.83579 10 6.5 9.66421 6.5 9.25C6.5 8.83579 6.83579 8.5 7.25 8.5H14.25Z" fill="#131416"/>
<path d="M10.5166 12C10.9308 12 11.2666 12.3358 11.2666 12.75C11.2666 13.1642 10.9308 13.5 10.5166 13.5H7.25C6.83579 13.5 6.5 13.1642 6.5 12.75C6.5 12.3358 6.83579 12 7.25 12H10.5166Z" fill="#131416"/>
<path d="M18 19.4967V21H6V19.4967H18ZM20.5 16.9913V15.5902V11.1106V7.0087C20.5 5.62498 19.3807 4.50326 18 4.50326H6C4.61929 4.50326 3.5 5.62498 3.5 7.0087V16.9913C3.50022 18.3748 4.61943 19.4967 6 19.4967V21L5.79395 20.9941C3.74863 20.8901 2.10838 19.2467 2.00488 17.1968L2 16.9913V7.0087C2 4.79476 3.79086 3 6 3H18C20.2091 3 22 4.79476 22 7.0087V11.606V14.1946V16.9913L21.9951 17.1968C21.8916 19.2467 20.2514 20.8901 18.2061 20.9941L18 21V19.4967C19.3806 19.4967 20.4998 18.3748 20.5 16.9913Z" fill="#131416"/>
</svg>
