<svg width="24" height="24" viewBox="0 0 24 24" fill="none" xmlns="http://www.w3.org/2000/svg">
<path d="M12.082 15.25C12.0292 15.4917 12 15.7425 12 16C12 16.2575 12.0292 16.5083 12.082 16.75H3C2.58579 16.75 2.25 16.4142 2.25 16C2.25 15.5858 2.58579 15.25 3 15.25H12.082ZM21 15.25C21.4142 15.25 21.75 15.5858 21.75 16C21.75 16.4142 21.4142 16.75 21 16.75H18.918C18.9708 16.5083 19 16.2575 19 16C19 15.7425 18.9708 15.4917 18.918 15.25H21ZM5.08203 7.25C5.02924 7.49171 5 7.74245 5 8C5 8.25755 5.02924 8.50829 5.08203 8.75H3C2.58579 8.75 2.25 8.41421 2.25 8C2.25 7.58579 2.58579 7.25 3 7.25H5.08203ZM21 7.25C21.4142 7.25 21.75 7.58579 21.75 8C21.75 8.41421 21.4142 8.75 21 8.75H11.918C11.9708 8.50829 12 8.25755 12 8C12 7.74245 11.9708 7.49171 11.918 7.25H21Z" fill="#131416"/>
<circle cx="8.5" cy="8" r="2.75" stroke="#131416" stroke-width="1.5"/>
<circle cx="15.5" cy="16" r="2.75" stroke="#131416" stroke-width="1.5"/>
</svg>
