<svg width="24" height="24" viewBox="0 0 24 24" fill="none" xmlns="http://www.w3.org/2000/svg">
<path d="M12 21.25C17.1086 21.25 21.25 17.1086 21.25 12C21.25 6.89137 17.1086 2.75 12 2.75C6.89137 2.75 2.75 6.89137 2.75 12C2.75 17.1086 6.89137 21.25 12 21.25Z" stroke="#131416" stroke-width="1.5" stroke-linecap="round" stroke-linejoin="round"/>
<path d="M9.15382 3.46155C7.25638 9.00206 7.25638 14.998 9.15382 20.5385" stroke="#131416" stroke-width="1.5" stroke-linecap="round" stroke-linejoin="round"/>
<path d="M14.8461 3.46155C16.7436 9.00206 16.7436 14.998 14.8461 20.5385" stroke="#131416" stroke-width="1.5" stroke-linecap="round" stroke-linejoin="round"/>
<path d="M3.46155 14.8461C9.00206 16.7436 14.998 16.7436 20.5385 14.8461" stroke="#131416" stroke-width="1.5" stroke-linecap="round" stroke-linejoin="round"/>
<path d="M3.46155 9.15382C9.00206 7.25638 14.998 7.25638 20.5385 9.15382" stroke="#131416" stroke-width="1.5" stroke-linecap="round" stroke-linejoin="round"/>
</svg>
