<svg width="24" height="24" viewBox="0 0 24 24" fill="none" xmlns="http://www.w3.org/2000/svg">
<path d="M11.25 13.75C11.25 13.3358 11.5858 13 12 13C12.4142 13 12.75 13.3358 12.75 13.75V18.25C12.75 18.6642 12.4142 19 12 19C11.5858 19 11.25 18.6642 11.25 18.25V13.75Z" fill="#131416"/>
<path d="M10.0254 2.4557C11.1909 1.56403 12.8091 1.56403 13.9746 2.4557L19.9746 7.0475C20.7781 7.66235 21.2498 8.61585 21.25 9.62758V21.2496H6C4.20507 21.2496 2.75 19.7946 2.75 17.9996V9.62758C2.75015 8.61585 3.2219 7.66235 4.02539 7.0475L10.0254 2.4557Z" stroke="#131416" stroke-width="1.5"/>
</svg>
