<svg width="24" height="24" viewBox="0 0 24 24" fill="none" xmlns="http://www.w3.org/2000/svg">
<path d="M14.7985 8.30881L7.62635 15.1845C7.36848 15.4525 7.22992 15.8035 7.23937 16.165C7.24883 16.5265 7.40556 16.8707 7.67713 17.1263C7.9487 17.382 8.3143 17.5296 8.69824 17.5385C9.08218 17.5474 9.45506 17.4169 9.73966 17.1742L19.0251 8.30881C19.5409 7.77291 19.818 7.0708 19.7991 6.34786C19.7802 5.62491 19.4667 4.9365 18.9236 4.42514C18.3804 3.91379 17.6492 3.61866 16.8814 3.60086C16.1135 3.58306 15.3677 3.84395 14.7985 4.32952L5.51304 13.1949C4.67231 13.9864 4.2 15.0599 4.2 16.1793C4.2 17.2987 4.67231 18.3723 5.51304 19.1638C6.35377 19.9553 7.49404 20.4 8.68301 20.4C9.87197 20.4 11.0122 19.9553 11.853 19.1638L19.5301 11.9536" stroke="#131416" stroke-width="1.5" stroke-linecap="round" stroke-linejoin="round"/>
</svg>
