<svg width="24" height="24" viewBox="0 0 24 24" fill="none" xmlns="http://www.w3.org/2000/svg">
<path d="M18.75 20.0739L5.25 20.0739" stroke="#131416" stroke-width="1.5" stroke-miterlimit="10" stroke-linecap="round" stroke-linejoin="round"/>
<path d="M12.0075 4.30499C12.4217 4.30499 12.7575 4.64078 12.7575 5.05499V14.0091L15.6178 11.1497L15.6745 11.098C15.9691 10.8576 16.4038 10.8751 16.6784 11.1497C16.9526 11.4242 16.97 11.8582 16.7301 12.1526L16.6784 12.2103L12.6237 16.264C12.5984 16.3005 12.5703 16.3359 12.5378 16.3685C12.2631 16.6431 11.8284 16.6606 11.5339 16.4202L11.4772 16.3685L7.32975 12.221L7.278 12.1644C7.03783 11.8698 7.0552 11.435 7.32975 11.1605C7.60432 10.886 8.03913 10.8685 8.33366 11.1087L8.3903 11.1605L11.2575 14.0276V5.05499C11.2575 4.6408 11.5933 4.30503 12.0075 4.30499Z" fill="#131416"/>
</svg>
