<svg width="24" height="24" viewBox="0 0 24 24" fill="none" xmlns="http://www.w3.org/2000/svg">
<path d="M7.5375 19.525C8.85 20.3125 10.425 20.75 12 20.75C16.8125 20.75 20.75 16.8125 20.75 12C20.75 7.1875 16.8125 3.25 12 3.25C7.1875 3.25 3.25 7.1875 3.25 12C3.25 13.575 3.6875 15.0625 4.3875 16.375L3.56712 19.5303C3.42692 20.0695 3.92603 20.5569 4.46175 20.4038L7.5375 19.525Z" stroke="#131416" stroke-width="1.5" stroke-miterlimit="10" stroke-linecap="round" stroke-linejoin="round"/>
<path d="M9.45608 9.87572C9.04333 9.71779 8.78047 9.28731 8.94314 8.87639C8.98474 8.7713 9.03196 8.66855 9.08481 8.56815C9.25414 8.24648 9.47735 7.97306 9.75444 7.74789C10.0315 7.51468 10.3586 7.33374 10.7358 7.20507C11.1206 7.06836 11.5555 7 12.0404 7C12.533 7 12.9756 7.06433 13.3681 7.193C13.7684 7.31363 14.107 7.49457 14.3841 7.73583C14.6612 7.96904 14.8729 8.2505 15.0191 8.58022C15.173 8.90993 15.25 9.27986 15.25 9.68999C15.25 10.2931 15.1076 10.8038 14.8228 11.222C14.5457 11.6401 14.1801 11.9739 13.726 12.2232C13.5798 12.3036 13.4412 12.384 13.3104 12.4644C13.1795 12.5368 13.0641 12.6172 12.964 12.7057C12.8717 12.7941 12.7947 12.8947 12.7331 13.0072C12.6792 13.1118 12.6523 13.2324 12.6523 13.3691V13.3691C12.6523 13.7555 12.3391 14.0688 11.9527 14.0688H11.6941C11.2477 14.0688 10.8859 13.7069 10.8859 13.2606V13.2606C10.8859 13.0997 10.9013 12.9349 10.9321 12.766C10.9705 12.5971 11.036 12.4322 11.1283 12.2714C11.2207 12.1106 11.3438 11.9538 11.4978 11.801C11.6594 11.6482 11.8595 11.5115 12.0981 11.3908C12.2752 11.3024 12.4368 11.2099 12.583 11.1134C12.737 11.0088 12.8678 10.8922 12.9756 10.7636C13.091 10.6269 13.1795 10.4741 13.2411 10.3052C13.3027 10.1363 13.3335 9.93928 13.3335 9.71411C13.3335 9.3844 13.2219 9.10696 12.9987 8.88179C12.7755 8.64857 12.4676 8.53197 12.075 8.53197C11.6055 8.53197 11.213 8.67672 10.8974 8.96622C10.8475 9.01321 10.8069 9.06751 10.7738 9.12756C10.4784 9.66352 10.0276 10.0944 9.45608 9.87572V9.87572ZM10.6896 15.8782C10.6896 15.7254 10.7165 15.5806 10.7704 15.4439C10.832 15.3072 10.909 15.1866 11.0013 15.082C11.1014 14.9775 11.213 14.8971 11.3361 14.8408C11.467 14.7764 11.6055 14.7443 11.7518 14.7443C11.898 14.7443 12.0366 14.7764 12.1674 14.8408C12.306 14.8971 12.4253 14.9775 12.5253 15.082C12.6254 15.1866 12.7023 15.3072 12.7562 15.4439C12.8178 15.5806 12.8486 15.7254 12.8486 15.8782C12.8486 16.031 12.8178 16.1757 12.7562 16.3124C12.7023 16.4491 12.6254 16.5657 12.5253 16.6622C12.4253 16.7668 12.306 16.8472 12.1674 16.9035C12.0366 16.9678 11.898 17 11.7518 17C11.6055 17 11.467 16.9678 11.3361 16.9035C11.213 16.8472 11.1014 16.7668 11.0013 16.6622C10.909 16.5657 10.832 16.4491 10.7704 16.3124C10.7165 16.1757 10.6896 16.031 10.6896 15.8782Z" fill="#131416"/>
</svg>
