<svg width="60" height="40" viewBox="0 0 60 40" fill="none" xmlns="http://www.w3.org/2000/svg">
<g clip-path="url(#clip0_295_1816)">
<path d="M6.44185 35.2977C4.51001 33.7436 3.37305 32.2926 2.6094 30.8628C1.38053 28.5503 1.20498 25.7436 2.97806 23.8901C4.75114 22.0366 7.66531 22.0366 9.43839 23.8901L10.0002 24.4815L10.5619 23.8901C12.335 22.0366 15.2492 22.0366 17.0223 23.8901C18.7953 25.7436 18.6198 28.5503 17.3909 30.8628C15.0473 35.2561 10.4529 37.3059 10.0237 37.4868C10.0002 37.4967 9.98008 37.4955 9.9566 37.4856C9.71197 37.3823 8.20823 36.7186 6.44185 35.2977Z" stroke="#6D7882" stroke-width="1.5"/>
<circle cx="29.9998" cy="30" r="7.58333" stroke="#6D7882" stroke-width="1.5"/>
<path d="M28.6148 32.7801L26.3077 30.4731C26.0148 30.1802 26.0149 29.7053 26.3077 29.4124C26.6006 29.1195 27.0755 29.1195 27.3684 29.4124L29.1672 31.2112L32.5757 27.8028C32.8685 27.5101 33.3435 27.5102 33.6363 27.8028C33.9292 28.0956 33.9291 28.5705 33.6363 28.8634L29.6968 32.8029C29.4039 33.0956 28.929 33.0958 28.6362 32.8029C28.6288 32.7955 28.6218 32.7878 28.6148 32.7801Z" fill="#6D7882"/>
<path d="M46.2814 16.2709C47.3752 16.9271 48.6877 17.2917 50.0002 17.2917C54.0106 17.2917 57.2918 14.0105 57.2918 10C57.2918 5.98962 54.0106 2.70837 50.0002 2.70837C45.9897 2.70837 42.7085 5.98962 42.7085 10C42.7085 11.3125 43.0731 12.5521 43.6564 13.6459L43.0256 16.072C42.8854 16.6113 43.3845 17.0986 43.9202 16.9455L46.2814 16.2709Z" stroke="#6D7882" stroke-width="1.5" stroke-miterlimit="10" stroke-linecap="round" stroke-linejoin="round"/>
<circle cx="46.0002" cy="10" r="1.04167" fill="#6D7882"/>
<circle cx="50.0002" cy="10" r="1.04167" fill="#6D7882"/>
<circle cx="54.0002" cy="10" r="1.04167" fill="#6D7882"/>
<path d="M46.2814 16.2709C47.3752 16.9271 48.6877 17.2917 50.0002 17.2917C54.0106 17.2917 57.2918 14.0105 57.2918 10C57.2918 5.98962 54.0106 2.70837 50.0002 2.70837C45.9897 2.70837 42.7085 5.98962 42.7085 10C42.7085 11.3125 43.0731 12.5521 43.6564 13.6459L43.0256 16.072C42.8854 16.6113 43.3845 17.0986 43.9202 16.9455L46.2814 16.2709Z" fill="#FFB114" stroke="#FFB114" stroke-width="1.5" stroke-miterlimit="10" stroke-linecap="round" stroke-linejoin="round"/>
<circle cx="46.0002" cy="10" r="0.541667" fill="white" stroke="white"/>
<circle cx="50.0002" cy="10" r="0.541667" fill="white" stroke="white"/>
<circle cx="54.0002" cy="10" r="0.541667" fill="white" stroke="white"/>
<path d="M6.44185 15.2977C4.51001 13.7436 3.37305 12.2926 2.6094 10.8628C1.38053 8.55032 1.20498 5.7436 2.97806 3.89011C4.75114 2.03663 7.66531 2.03663 9.43839 3.89011L10.0002 4.48148L10.5619 3.89011C12.335 2.03663 15.2492 2.03663 17.0223 3.89011C18.7953 5.7436 18.6198 8.55032 17.3909 10.8628C15.0473 15.2561 10.4529 17.3059 10.0237 17.4868C10.0002 17.4967 9.98008 17.4955 9.9566 17.4856C9.71197 17.3823 8.20823 16.7186 6.44185 15.2977Z" fill="#ED5061" stroke="#ED5061" stroke-width="1.5"/>
<circle cx="29.9998" cy="9.99996" r="8.33333" fill="#009574"/>
<path d="M28.6148 12.7801L26.3077 10.4731C26.0148 10.1802 26.0149 9.7053 26.3077 9.4124C26.6006 9.11951 27.0755 9.11951 27.3684 9.4124L29.1672 11.2112L32.5757 7.80277C32.8685 7.51012 33.3435 7.51019 33.6363 7.80277C33.9292 8.09561 33.9291 8.57052 33.6363 8.86343L29.6968 12.8029C29.4039 13.0956 28.929 13.0958 28.6362 12.8029C28.6288 12.7955 28.6218 12.7878 28.6148 12.7801Z" fill="white"/>
<path d="M46.2814 36.2709C47.3752 36.9271 48.6877 37.2917 50.0002 37.2917C54.0106 37.2917 57.2918 34.0105 57.2918 30C57.2918 25.9896 54.0106 22.7084 50.0002 22.7084C45.9897 22.7084 42.7085 25.9896 42.7085 30C42.7085 31.3125 43.0731 32.5521 43.6564 33.6459L43.0256 36.072C42.8854 36.6113 43.3845 37.0986 43.9202 36.9455L46.2814 36.2709Z" stroke="#6D7882" stroke-width="1.5" stroke-miterlimit="10" stroke-linecap="round" stroke-linejoin="round"/>
<circle cx="46.0002" cy="30" r="1.04167" fill="#6D7882"/>
<circle cx="50.0002" cy="30" r="1.04167" fill="#6D7882"/>
<circle cx="54.0002" cy="30" r="1.04167" fill="#6D7882"/>
</g>
<defs>
<clipPath id="clip0_295_1816">
<rect width="60" height="40" fill="white"/>
</clipPath>
</defs>
</svg>
