<svg width="24" height="24" viewBox="0 0 24 24" fill="none" xmlns="http://www.w3.org/2000/svg">
<path d="M8 9.375L15.9972 4.74028C17.3305 3.96756 19 4.92963 19 6.47069V16.8131C19 18.2878 17.4582 19.2554 16.1302 18.614L8 14.6875V9.375Z" stroke="#131416" stroke-width="1.5"/>
<path d="M3 11C3 9.89543 3.89543 9 5 9H8V15H5C3.89543 15 3 14.1046 3 13V11Z" stroke="#131416" stroke-width="1.5"/>
<path d="M19 15C20.6569 15 22 13.6569 22 12C22 10.3431 20.6569 9 19 9V15Z" stroke="#131416" stroke-width="1.5"/>
<path d="M9 15.5L9.68561 19.2709C9.84931 20.1712 9.15763 21 8.24252 21V21C7.52552 21 6.91361 20.4816 6.79573 19.7744L6 15H8" stroke="#131416" stroke-width="1.5"/>
</svg>
