<svg width="24" height="24" viewBox="0 0 24 24" fill="none" xmlns="http://www.w3.org/2000/svg">
<path d="M9.43066 3.75H14.5693C14.9807 3.75015 15.3668 3.98813 15.5586 4.37988C15.5665 4.3961 15.5749 4.41213 15.584 4.42773L16.9297 6.73145C17.0642 6.96154 17.3106 7.10251 17.5771 7.10254H18.2812C19.9721 7.10254 21.3456 8.56284 21.2451 10.3301L20.7529 18.3789V18.3818C20.659 20.0064 19.347 21.2498 17.79 21.25H6.20996C4.65304 21.2496 3.34099 20.0062 3.24707 18.3818V18.3789L2.75488 10.3301C2.65442 8.56296 4.02788 7.10264 5.71875 7.10254H6.42285C6.68936 7.10251 6.93585 6.96154 7.07031 6.73145L8.41602 4.42773C8.42511 4.41213 8.43346 4.3961 8.44141 4.37988C8.63311 3.98815 9.01921 3.75015 9.43066 3.75Z" stroke="#131416" stroke-width="1.5" stroke-linejoin="round"/>
<circle cx="12" cy="14" r="2.75" stroke="#131416" stroke-width="1.5"/>
<path d="M10.5 7.5H13.5" stroke="#131416" stroke-width="1.5" stroke-linecap="round"/>
</svg>
