<svg width="24" height="24" viewBox="0 0 24 24" fill="none" xmlns="http://www.w3.org/2000/svg">
<circle cx="12" cy="12" r="9.25" stroke="#131416" stroke-width="1.5"/>
<circle cx="11.9998" cy="16.167" r="1.23457" fill="#131416"/>
<path d="M8.94446 9.29653V9.40807C8.94446 9.94916 9.3831 10.3878 9.92419 10.3878C10.4653 10.3878 10.9039 9.94916 10.9039 9.40807V9.34144C10.9039 8.8873 11.0165 8.54545 11.2418 8.31588C11.472 8.08133 11.8098 7.96405 12.2553 7.96405C12.7157 7.96405 13.0511 8.08632 13.2613 8.33086C13.4765 8.5704 13.5841 8.92224 13.5841 9.38636C13.5841 9.83551 13.4715 10.1998 13.2463 10.4793C13.021 10.7588 12.6982 11.0831 12.2778 11.4524C11.7773 11.8966 11.442 12.3183 11.2718 12.7176C11.2058 12.8705 11.1525 13.0389 11.1121 13.2227C10.9943 13.7584 11.459 14.2106 12.0075 14.2147L12.0456 14.2149C12.579 14.2189 13.0021 13.7774 13.1712 13.2715C13.2813 12.9521 13.5416 12.6252 13.952 12.2909C14.3624 11.9665 14.7403 11.5647 15.0856 11.0856C15.4359 10.6016 15.6111 10.0177 15.6111 9.33396C15.6111 8.43566 15.3083 7.72949 14.7027 7.21547C14.0971 6.70144 13.2863 6.44443 12.2703 6.44443C11.2643 6.44443 10.4585 6.69645 9.85287 7.2005C9.24726 7.69955 8.94446 8.39823 8.94446 9.29653Z" fill="#131416"/>
</svg>
